[Header]
FileType HTR
DataType HTRS
FileVersion 1
NumSegments 64
NumFrames 4
DataFrameRate 24
EulerRotationOrder ZYX
CalibrationUnits mm
RotationUnits Degrees
GlobalAxisofGravity Y
BoneLengthAxis Y
ScaleFactor 1.0
[SegmentNames&Hierarchy]
Hips	GLOBAL
Spine	Hips
Spine1	Spine
Spine2	Spine1
Neck	Spine2
Head	Neck
LeftEye	Head
RightEye	Head
LeftShoulder	Spine2
LeftArm	LeftShoulder
LeftForeArm	LeftArm
LeftHand	LeftForeArm
LeftHandThumb1	LeftHand
LeftHandThumb2	LeftHandThumb1
LeftHandThumb3	LeftHandThumb2
LeftHandThumb4	LeftHandThumb3
LeftHandIndex1	LeftHand
LeftHandIndex2	LeftHandIndex1
LeftHandIndex3	LeftHandIndex2
LeftHandIndex4	LeftHandIndex3
LeftHandMiddle1	LeftHand
LeftHandMiddle2	LeftHandMiddle1
LeftHandMiddle3	LeftHandMiddle2
LeftHandMiddle4	LeftHandMiddle3
LeftHandRing1	LeftHand
LeftHandRing2	LeftHandRing1
LeftHandRing3	LeftHandRing2
LeftHandRing4	LeftHandRing3
LeftHandPinky1	LeftHand
LeftHandPinky2	LeftHandPinky1
LeftHandPinky3	LeftHandPinky2
LeftHandPinky4	LeftHandPinky3
RightShoulder	Spine2
RightArm	RightShoulder
RightForeArm	RightArm
RightHand	RightForeArm
RightHandPinky1	RightHand
RightHandPinky2	RightHandPinky1
RightHandPinky3	RightHandPinky2
RightHandPinky4	RightHandPinky3
RightHandRing1	RightHand
RightHandRing2	RightHandRing1
RightHandRing3	RightHandRing2
RightHandRing4	RightHandRing3
RightHandMiddle1	RightHand
RightHandMiddle2	RightHandMiddle1
RightHandMiddle3	RightHandMiddle2
RightHandMiddle4	RightHandMiddle3
RightHandIndex1	RightHand
RightHandIndex2	RightHandIndex1
RightHandIndex3	RightHandIndex2
RightHandIndex4	RightHandIndex3
RightHandThumb1	RightHand
RightHandThumb2	RightHandThumb1
RightHandThumb3	RightHandThumb2
RightHandThumb4	RightHandThumb3
LeftUpLeg	Hips
LeftLeg	LeftUpLeg
LeftFoot	LeftLeg
LeftToeBase	LeftFoot
RightUpLeg	Hips
RightLeg	RightUpLeg
RightFoot	RightLeg
RightToeBase	RightFoot
[BasePosition]
Hips	0	0	0	0	0	0	1
Spine	0	0	0	0	0	0	1
Spine1	0	0	0	0	0	0	1
Spine2	0	0	0	0	0	0	1
Neck	0	0	0	0	0	0	1
Head	0	0	0	0	0	0	1
LeftEye	0	0	0	0	0	0	1
RightEye	0	0	0	0	0	0	1
LeftShoulder	0	0	0	0	0	0	1
LeftArm	0	0	0	0	0	0	1
LeftForeArm	0	0	0	0	0	0	1
LeftHand	0	0	0	0	0	0	1
LeftHandThumb1	0	0	0	0	0	0	1
LeftHandThumb2	0	0	0	0	0	0	1
LeftHandThumb3	0	0	0	0	0	0	1
LeftHandThumb4	0	0	0	0	0	0	1
LeftHandIndex1	0	0	0	0	0	0	1
LeftHandIndex2	0	0	0	0	0	0	1
LeftHandIndex3	0	0	0	0	0	0	1
LeftHandIndex4	0	0	0	0	0	0	1
LeftHandMiddle1	0	0	0	0	0	0	1
LeftHandMiddle2	0	0	0	0	0	0	1
LeftHandMiddle3	0	0	0	0	0	0	1
LeftHandMiddle4	0	0	0	0	0	0	1
LeftHandRing1	0	0	0	0	0	0	1
LeftHandRing2	0	0	0	0	0	0	1
LeftHandRing3	0	0	0	0	0	0	1
LeftHandRing4	0	0	0	0	0	0	1
LeftHandPinky1	0	0	0	0	0	0	1
LeftHandPinky2	0	0	0	0	0	0	1
LeftHandPinky3	0	0	0	0	0	0	1
LeftHandPinky4	0	0	0	0	0	0	1
RightShoulder	0	0	0	0	0	0	1
RightArm	0	0	0	0	0	0	1
RightForeArm	0	0	0	0	0	0	1
RightHand	0	0	0	0	0	0	1
RightHandPinky1	0	0	0	0	0	0	1
RightHandPinky2	0	0	0	0	0	0	1
RightHandPinky3	0	0	0	0	0	0	1
RightHandPinky4	0	0	0	0	0	0	1
RightHandRing1	0	0	0	0	0	0	1
RightHandRing2	0	0	0	0	0	0	1
RightHandRing3	0	0	0	0	0	0	1
RightHandRing4	0	0	0	0	0	0	1
RightHandMiddle1	0	0	0	0	0	0	1
RightHandMiddle2	0	0	0	0	0	0	1
RightHandMiddle3	0	0	0	0	0	0	1
RightHandMiddle4	0	0	0	0	0	0	1
RightHandIndex1	0	0	0	0	0	0	1
RightHandIndex2	0	0	0	0	0	0	1
RightHandIndex3	0	0	0	0	0	0	1
RightHandIndex4	0	0	0	0	0	0	1
RightHandThumb1	0	0	0	0	0	0	1
RightHandThumb2	0	0	0	0	0	0	1
RightHandThumb3	0	0	0	0	0	0	1
RightHandThumb4	0	0	0	0	0	0	1
LeftUpLeg	0	0	0	0	0	0	1
LeftLeg	0	0	0	0	0	0	1
LeftFoot	0	0	0	0	0	0	1
LeftToeBase	0	0	0	0	0	0	1
RightUpLeg	0	0	0	0	0	0	1
RightLeg	0	0	0	0	0	0	1
RightFoot	0	0	0	0	0	0	1
RightToeBase	0	0	0	0	0	0	1
[Hips]
88	6.349625111	1016.685913	19.63893127	-0.8876327872	1.312876225	-5.465233803	1.0
89	6.256528854	1016.663757	19.54683304	-0.8733344078	1.313186526	-5.461169243	1.0
90	6.166014671	1016.641724	19.45541573	-0.8590172529	1.312731862	-5.457341671	1.0
91	6.16734457	1016.627319	19.35996437	-0.8410246372	1.294850469	-5.458762169	1.0
[Spine]
88	0	101.8159943	1.315000057	1.097310662	-1.278948903	3.03211689	1.0
89	0	101.8159943	1.315000057	1.117783546	-1.277788281	3.036394119	1.0
90	0	101.8159943	1.315000057	1.138061404	-1.276329756	3.040261984	1.0
91	0	101.8159943	1.315000057	1.156087279	-1.269955039	3.036629438	1.0
[Spine1]
88	0	100.8349991	-10.00800037	0.5833963752	0.1679723561	5.943210125	1.0
89	0	100.8349991	-10.00800037	0.6091443896	0.170258671	5.943436146	1.0
90	0	100.8349991	-10.00800037	0.63474226	0.1725880206	5.943682671	1.0
91	0	100.8349991	-10.00800037	0.65654248	0.1754413247	5.944802284	1.0
[Spine2]
88	0	91	-13.73399925	0.6169627905	0.7041717172	5.855460644	1.0
89	0	91	-13.73399925	0.6428579688	0.7037922144	5.855965614	1.0
90	0	91	-13.73399925	0.6686019897	0.7034742832	5.856489658	1.0
91	0	91	-13.73399925	0.6905245185	0.7041884065	5.857845306	1.0
[Neck]
88	0	166.7169952	-25.16200066	0.9594236016	-0.2688930035	-2.175079346	1.0
89	0	166.7169952	-25.16200066	0.9662296772	-0.271928817	-2.174318552	1.0
90	0	166.7169952	-25.16200066	0.9730772972	-0.2747923732	-2.173995018	1.0
91	0	166.7169952	-25.16200066	0.9812880754	-0.2761370242	-2.179947615	1.0
[Head]
88	0	96.17900085	16.84999847	1.490890741	0.7229357958	-8.071209908	1.0
89	0	96.17900085	16.84999847	1.482200742	0.7078410387	-8.071967125	1.0
90	0	96.17900085	16.84999847	1.474842787	0.6933342814	-8.073255539	1.0
91	0	96.17900085	16.84999847	1.493135452	0.6838412881	-8.079709053	1.0
[LeftEye]
88	30.6760006	64.09500122	92.83599854	0	0	0	1.0
89	30.6760006	64.09500122	92.83599854	0	0	0	1.0
90	30.6760006	64.09500122	92.83599854	0	0	0	1.0
91	30.6760006	64.09500122	92.83599854	0	0	0	1.0
[RightEye]
88	-30.6760006	64.09500122	92.83499908	0	0	0	1.0
89	-30.6760006	64.09500122	92.83499908	0	0	0	1.0
90	-30.6760006	64.09500122	92.83499908	0	0	0	1.0
91	-30.6760006	64.09500122	92.83499908	0	0	0	1.0
[LeftShoulder]
88	45.70400238	109.4599991	-26.28000069	4.853086472	-13.51131058	-4.336226463	1.0
89	45.70400238	109.4599991	-26.28000069	4.859505177	-13.51292801	-4.581313133	1.0
90	45.70400238	109.4599991	-26.28000069	4.865981579	-13.51355553	-4.825056553	1.0
91	45.70400238	109.4599991	-26.28000069	4.872284889	-13.49767208	-5.025571346	1.0
[LeftArm]
88	105.923996	-5.24600029	-22.32099915	-3.185884237	4.386754036	-85.39770508	1.0
89	105.923996	-5.24600029	-22.32099915	-3.194349289	4.364358425	-85.14334106	1.0
90	105.923996	-5.24600029	-22.32099915	-3.203241348	4.342953205	-84.89037323	1.0
91	105.923996	-5.24600029	-22.32099915	-3.213094711	4.335076332	-84.67749023	1.0
[LeftForeArm]
88	278.414978	-0.0009999999311	0	-5.368901839e-06	-14.50655556	-0.0001968961733	1.0
89	278.414978	-0.0009999999311	0	-7.536941212e-06	-14.50640965	-0.0001911237196	1.0
90	278.414978	-0.0009999999311	0	-8.478649761e-06	-14.50704288	-0.0001889940759	1.0
91	278.414978	-0.0009999999311	0	8.986670764e-06	-14.52089787	-0.0002419342782	1.0
[LeftHand]
88	283.2879944	0	0	-27.65293884	-1.055171013	-9.979438782	1.0
89	283.2879944	0	0	-27.6598053	-1.054188848	-9.978281021	1.0
90	283.2879944	0	0	-27.66863823	-1.053874135	-9.976366997	1.0
91	283.2879944	0	0	-27.71152306	-1.056928158	-9.96072197	1.0
[LeftHandThumb1]
88	24.6609993	-15.75	26.8239994	19.12193298	-1.409104228	12.05739975	1.0
89	24.6609993	-15.75	26.8239994	19.18485832	-1.273586512	12.16076088	1.0
90	24.6609993	-15.75	26.8239994	19.24739456	-1.138985276	12.26344872	1.0
91	24.6609993	-15.75	26.8239994	19.29971123	-1.030030727	12.34766102	1.0
[LeftHandThumb2]
88	32.29800034	-18.64699936	18.64699936	0.8383523226	35.86552429	-2.044222116	1.0
89	32.29800034	-18.64699936	18.64699936	0.9107780457	36.0382576	-2.000429153	1.0
90	32.29800034	-18.64699936	18.64699936	0.9827374816	36.20984268	-1.956913948	1.0
91	32.29800034	-18.64699936	18.64699936	1.042041302	36.34957123	-1.920887589	1.0
[LeftHandThumb3]
88	26.52600098	-15.31499958	15.31499958	2.964238167	12.40680695	0.7853087187	1.0
89	26.52600098	-15.31499958	15.31499958	3.014314413	12.57896996	0.8314239383	1.0
90	26.52600098	-15.31499958	15.31499958	3.064070702	12.74998474	0.8772455454	1.0
91	26.52600098	-15.31499958	15.31499958	3.105177879	12.88912678	0.9151607752	1.0
[LeftHandThumb4]
88	19.54599953	-11.28499985	11.28499985	0	0	0	1.0
89	19.54599953	-11.28499985	11.28499985	0	0	0	1.0
90	19.54599953	-11.28499985	11.28499985	0	0	0	1.0
91	19.54599953	-11.28499985	11.28499985	0	0	0	1.0
[LeftHandIndex1]
88	91.09299469	-5.170999527	22.60099792	-0.4484754205	4.837341309	-9.620127678	1.0
89	91.09299469	-5.170999527	22.60099792	-0.4504926503	4.839557648	-9.644071579	1.0
90	91.09299469	-5.170999527	22.60099792	-0.4524964094	4.841759205	-9.667856216	1.0
91	91.09299469	-5.170999527	22.60099792	-0.454131633	4.843547344	-9.687234879	1.0
[LeftHandIndex2]
88	36.76399994	0	0	-0.7163484693	2.927568436	-22.34544373	1.0
89	36.76399994	0	0	-0.717566967	2.929668903	-22.36934662	1.0
90	36.76399994	0	0	-0.7187772989	2.931755781	-22.39308548	1.0
91	36.76399994	0	0	-0.7197630405	2.933453798	-22.41239929	1.0
[LeftHandIndex3]
88	28.83100128	0	0	-0.1438549161	0.9801050425	-11.939394	1.0
89	28.83100128	0	0	-0.1443494558	0.9824525714	-11.96324539	1.0
90	28.83100128	0	0	-0.1448409557	0.9847843051	-11.98693848	1.0
91	28.83100128	0	0	-0.1452478468	0.9866804481	-12.00621986	1.0
[LeftHandIndex4]
88	23.92700005	0	0	0	0	0	1.0
89	23.92700005	0	0	0	0	0	1.0
90	23.92700005	0	0	0	0	0	1.0
91	23.92700005	0	0	0	0	0	1.0
[LeftHandMiddle1]
88	95.33399963	0	0	-1.739499211	8.804037094	-17.67286682	1.0
89	95.33399963	0	0	-1.742461562	8.805701256	-17.69702911	1.0
90	95.33399963	0	0	-1.745404482	8.807354927	-17.721035	1.0
91	95.33399963	0	0	-1.747807264	8.808704376	-17.74060822	1.0
[LeftHandMiddle2]
88	36.98199844	0	0	-1.550959706	3.953618288	-35.19675827	1.0
89	36.98199844	0	0	-1.552658677	3.955349922	-35.2207489	1.0
90	36.98199844	0	0	-1.554346442	3.957069874	-35.24457932	1.0
91	36.98199844	0	0	-1.555721521	3.958470821	-35.26400757	1.0
[LeftHandMiddle3]
88	29.50900078	0	0	-0.192408219	1.656282425	-14.03431988	1.0
89	29.50900078	0	0	-0.1930267364	1.658574939	-14.05818367	1.0
90	29.50900078	0	0	-0.1936412752	1.660851836	-14.0818882	1.0
91	29.50900078	0	0	-0.1941455156	1.662700891	-14.10118675	1.0
[LeftHandMiddle4]
88	28.3390007	0	0	0	0	0	1.0
89	28.3390007	0	0	0	0	0	1.0
90	28.3390007	0	0	0	0	0	1.0
91	28.3390007	0	0	0	0	0	1.0
[LeftHandRing1]
88	91.04499817	-0.4390000105	-18.65100098	-3.467007399	11.6869297	-30.27822876	1.0
89	91.04499817	-0.4390000105	-18.65100098	-3.49202013	11.69540024	-30.4635067	1.0
90	91.04499817	-0.4390000105	-18.65100098	-3.516867638	11.70380783	-30.64755249	1.0
91	91.04499817	-0.4390000105	-18.65100098	-3.537192345	11.71038628	-30.79747009	1.0
[LeftHandRing2]
88	31.54000092	0	0	-1.405168533	4.305062294	-43.48556519	1.0
89	31.54000092	0	0	-1.417064428	4.318728924	-43.66884232	1.0
90	31.54000092	0	0	-1.428884387	4.332302094	-43.85089874	1.0
91	31.54000092	0	0	-1.438656211	4.343227863	-43.9991951	1.0
[LeftHandRing3]
88	29.37700081	0	0	-0.17822209	2.21576333	-22.59432983	1.0
89	29.37700081	0	0	-0.1834034324	2.233094215	-22.77613449	1.0
90	29.37700081	0	0	-0.1885544211	2.250308752	-22.95672989	1.0
91	29.37700081	0	0	-0.1929336339	2.264278412	-23.10383606	1.0
[LeftHandRing4]
88	26.47500038	0	0	0	0	0	1.0
89	26.47500038	0	0	0	0	0	1.0
90	26.47500038	0	0	0	0	0	1.0
91	26.47500038	0	0	0	0	0	1.0
[LeftHandPinky1]
88	80.77799988	-4.887000084	-38.06099701	-6.166166306	16.11729431	-40.30597305	1.0
89	80.77799988	-4.887000084	-38.06099701	-6.219120026	16.11728096	-40.49596786	1.0
90	80.77799988	-4.887000084	-38.06099701	-6.271722794	16.11726189	-40.68470001	1.0
91	80.77799988	-4.887000084	-38.06099701	-6.314608097	16.11696625	-40.83842468	1.0
[LeftHandPinky2]
88	36	0	0	-2.197378159	4.024740219	-48.93382263	1.0
89	36	0	0	-2.211686134	4.035996437	-49.11641693	1.0
90	36	0	0	-2.225901604	4.047174454	-49.29778671	1.0
91	36	0	0	-2.237598181	4.05612278	-49.44549942	1.0
[LeftHandPinky3]
88	21.14200211	0	0	-0.6922680736	3.124275684	-23.78842545	1.0
89	21.14200211	0	0	-0.7009363174	3.140307903	-23.97048378	1.0
90	21.14200211	0	0	-0.7095503807	3.156230927	-24.15132904	1.0
91	21.14200211	0	0	-0.7167338729	3.169104576	-24.29862785	1.0
[LeftHandPinky4]
88	19.75699997	0	0	0	0	0	1.0
89	19.75699997	0	0	0	0	0	1.0
90	19.75699997	0	0	0	0	0	1.0
91	19.75699997	0	0	0	0	0	1.0
[RightShoulder]
88	-45.70000076	109.4620056	-26.28000069	5.088105202	2.748403072	4.068376541	1.0
89	-45.70000076	109.4620056	-26.28000069	5.049164295	2.756709099	4.308771133	1.0
90	-45.70000076	109.4620056	-26.28000069	5.010498524	2.764698505	4.546773434	1.0
91	-45.70000076	109.4620056	-26.28000069	4.978395462	2.784689665	4.741308212	1.0
[RightArm]
88	-105.9280014	-5.248000145	-22.32099915	0.4855461717	1.620393991	69.03437042	1.0
89	-105.9280014	-5.248000145	-22.32099915	0.4635987878	1.622930527	68.78587341	1.0
90	-105.9280014	-5.248000145	-22.32099915	0.4421719015	1.62586236	68.53995514	1.0
91	-105.9280014	-5.248000145	-22.32099915	0.4259489775	1.621633887	68.34037781	1.0
[RightForeArm]
88	-278.414978	0	0	-3.776381163e-06	17.71373367	-3.850330904e-05	1.0
89	-278.414978	0	0	-3.486772812e-06	17.72360229	-3.643130913e-05	1.0
90	-278.414978	0	0	-3.007840633e-06	17.73295212	-3.354799264e-05	1.0
91	-278.414978	0	0	2.233136684e-06	17.74141502	3.132039865e-06	1.0
[RightHand]
88	-283.2879944	0	0.0009999999311	-12.59340477	-6.774337769	11.79532242	1.0
89	-283.2879944	0	0.0009999999311	-12.61557102	-6.776956558	11.79198551	1.0
90	-283.2879944	0	0.0009999999311	-12.63830662	-6.780346394	11.78998089	1.0
91	-283.2879944	0	0.0009999999311	-12.67341614	-6.797524929	11.81069088	1.0
[RightHandPinky1]
88	-80.76699829	-4.885000229	-38.06000137	-6.166054249	-16.11835861	40.30633926	1.0
89	-80.76699829	-4.885000229	-38.06000137	-6.219006538	-16.11834145	40.49633408	1.0
90	-80.76699829	-4.885000229	-38.06000137	-6.271606922	-16.11832047	40.68506622	1.0
91	-80.76699829	-4.885000229	-38.06000137	-6.314488888	-16.11802673	40.83879089	1.0
[RightHandPinky2]
88	-36	0	0.0009999999311	-2.195901155	-4.023088455	48.93377686	1.0
89	-36	0	0.0009999999311	-2.210203409	-4.034347534	49.11637115	1.0
90	-36	0	0.0009999999311	-2.224413157	-4.045528412	49.29774094	1.0
91	-36	0	0.0009999999311	-2.236103296	-4.05448103	49.44545364	1.0
[RightHandPinky3]
88	-21.14200211	0	0	-0.9221458435	-0.2314445823	25.37759209	1.0
89	-21.14200211	0	0	-0.9312411547	-0.2472268641	25.55921173	1.0
90	-21.14200211	0	0	-0.9402795434	-0.2629021406	25.73962402	1.0
91	-21.14200211	0	0	-0.947806716	-0.2755744159	25.8865757	1.0
[RightHandPinky4]
88	-19.75699997	0	0	0	0	0	1.0
89	-19.75699997	0	0	0	0	0	1.0
90	-19.75699997	0	0	0	0	0	1.0
91	-19.75699997	0	0	0	0	0	1.0
[RightHandRing1]
88	-91.03599548	-0.4390000105	-18.65100098	-3.466911793	-11.68652821	30.27836609	1.0
89	-91.03599548	-0.4390000105	-18.65100098	-3.491921425	-11.69499683	30.46364021	1.0
90	-91.03599548	-0.4390000105	-18.65100098	-3.516766787	-11.70340252	30.6476841	1.0
91	-91.03599548	-0.4390000105	-18.65100098	-3.53709197	-11.70998001	30.79763031	1.0
[RightHandRing2]
88	-31.54000092	0	0	-1.404952288	-4.304508686	43.48560333	1.0
89	-31.54000092	0	0	-1.41684711	-4.318173409	43.66887665	1.0
90	-31.54000092	0	0	-1.428665876	-4.331744671	43.85093307	1.0
91	-31.54000092	0	0	-1.438433528	-4.34266901	43.9992218	1.0
[RightHandRing3]
88	-29.37700081	0	0	-0.2158827484	-0.2244596481	21.06869698	1.0
89	-29.37700081	0	0	-0.2205964774	-0.2419196516	21.25032234	1.0
90	-29.37700081	0	0	-0.2252830267	-0.2592624724	21.43073845	1.0
91	-29.37700081	0	0	-0.2292864174	-0.2733380795	21.57767868	1.0
[RightHandRing4]
88	-26.47500038	0	0	0	0	0	1.0
89	-26.47500038	0	0	0	0	0	1.0
90	-26.47500038	0	0	0	0	0	1.0
91	-26.47500038	0	0	0	0	0	1.0
[RightHandMiddle1]
88	-95.32500458	0	0	-1.739474654	-8.803798676	17.67301178	1.0
89	-95.32500458	0	0	-1.742437243	-8.805463791	17.69717789	1.0
90	-95.32500458	0	0	-1.745380163	-8.807117462	17.72118568	1.0
91	-95.32500458	0	0	-1.747777343	-8.808460236	17.74073601	1.0
[RightHandMiddle2]
88	-36.98199844	0	0	-1.550809026	-3.953159571	35.1967926	1.0
89	-36.98199844	0	0	-1.552507877	-3.95489049	35.22078323	1.0
90	-36.98199844	0	0	-1.554195404	-3.956609726	35.24461746	1.0
91	-36.98199844	0	0	-1.555573821	-3.958006859	35.26403427	1.0
[RightHandMiddle3]
88	-29.50900078	0	0	-0.307574898	-1.845764518	17.66936874	1.0
89	-29.50900078	0	0	-0.3083376884	-1.848012686	17.69324112	1.0
90	-29.50900078	0	0	-0.3090956211	-1.850245833	17.71695328	1.0
91	-29.50900078	0	0	-0.3097187877	-1.852063417	17.73625565	1.0
[RightHandMiddle4]
88	-28.3390007	0	0.0009999999311	0	0	0	1.0
89	-28.3390007	0	0.0009999999311	0	0	0	1.0
90	-28.3390007	0	0.0009999999311	0	0	0	1.0
91	-28.3390007	0	0.0009999999311	0	0	0	1.0
[RightHandIndex1]
88	-91.08300018	-5.167999744	22.60099792	-0.4484719038	-4.837208748	9.62021637	1.0
89	-91.08300018	-5.167999744	22.60099792	-0.4504880309	-4.83942461	9.644158363	1.0
90	-91.08300018	-5.167999744	22.60099792	-0.4524908662	-4.841626167	9.66794014	1.0
91	-91.08300018	-5.167999744	22.60099792	-0.4541249871	-4.843416691	9.68732357	1.0
[RightHandIndex2]
88	-36.76399994	0	0	-0.7162865996	-2.92726779	22.34549141	1.0
89	-36.76399994	0	0	-0.7175055146	-2.929368496	22.3693943	1.0
90	-36.76399994	0	0	-0.7187164426	-2.931455374	22.39313889	1.0
91	-36.76399994	0	0	-0.7197058797	-2.933151722	22.41246223	1.0
[RightHandIndex3]
88	-28.83100128	0	0	-0.2837282121	-0.3294574618	15.61305332	1.0
89	-28.83100128	0	0	-0.2843720615	-0.3317673802	15.63689613	1.0
90	-28.83100128	0	0	-0.2850116193	-0.3340619504	15.66058159	1.0
91	-28.83100128	0	0	-0.2855337262	-0.3359299898	15.67988491	1.0
[RightHandIndex4]
88	-23.92700005	0	0	0	0	0	1.0
89	-23.92700005	0	0	0	0	0	1.0
90	-23.92700005	0	0	0	0	0	1.0
91	-23.92700005	0	0	0	0	0	1.0
[RightHandThumb1]
88	-24.64799881	-15.72700024	26.82600021	19.12163353	1.409291387	-12.05760193	1.0
89	-24.64799881	-15.72700024	26.82600021	19.18455887	1.273773193	-12.1609621	1.0
90	-24.64799881	-15.72700024	26.82600021	19.24709702	1.139171004	-12.26364708	1.0
91	-24.64799881	-15.72700024	26.82600021	19.29940033	1.030204773	-12.34780693	1.0
[RightHandThumb2]
88	-32.29800034	-18.64699936	18.64699936	0.8374855518	-35.86422729	2.046127081	1.0
89	-32.29800034	-18.64699936	18.64699936	0.9099068642	-36.03696442	2.002338171	1.0
90	-32.29800034	-18.64699936	18.64699936	0.9818608761	-36.2085495	1.958828211	1.0
91	-32.29800034	-18.64699936	18.64699936	1.041142464	-36.34824753	1.92282021	1.0
[RightHandThumb3]
88	-26.52600098	-15.31399918	15.31399918	2.695114613	-11.56507587	0.04685632512	1.0
89	-26.52600098	-15.31399918	15.31399918	2.742484808	-11.7379303	0.00199308712	1.0
90	-26.52600098	-15.31399918	15.31399918	2.789553642	-11.90963268	-0.04258517548	1.0
91	-26.52600098	-15.31399918	15.31399918	2.828454971	-12.04936123	-0.07947394997	1.0
[RightHandThumb4]
88	-19.54599953	-11.28499985	11.28499985	0	0	0	1.0
89	-19.54599953	-11.28499985	11.28499985	0	0	0	1.0
90	-19.54599953	-11.28499985	11.28499985	0	0	0	1.0
91	-19.54599953	-11.28499985	11.28499985	0	0	0	1.0
[LeftUpLeg]
88	82.07800293	-67.51699829	-15.99599934	-17.37484741	15.2661705	12.11735916	1.0
89	82.07800293	-67.51699829	-15.99599934	-17.39583588	15.26574516	12.11406708	1.0
90	82.07800293	-67.51699829	-15.99599934	-17.4170742	15.26544762	12.1109333	1.0
91	82.07800293	-67.51699829	-15.99599934	-17.45124817	15.26660919	12.10798454	1.0
[LeftLeg]
88	0	-443.7049866	2.845999956	25.14709854	7.755617142	6.156660557	1.0
89	0	-443.7049866	2.845999956	25.14506721	7.758251667	6.156451225	1.0
90	0	-443.7049866	2.845999956	25.14391708	7.76075983	6.156356335	1.0
91	0	-443.7049866	2.845999956	25.16651154	7.759991646	6.159641266	1.0
[LeftFoot]
88	0	-444.2789917	-29.8219986	-4.410278797	2.708322048	-11.27319622	1.0
89	0	-444.2789917	-29.8219986	-4.39832592	2.712882757	-11.27812099	1.0
90	0	-444.2789917	-29.8219986	-4.386287689	2.717797518	-11.28229618	1.0
91	0	-444.2789917	-29.8219986	-4.366432667	2.734993458	-11.27014542	1.0
[LeftToeBase]
88	0	-87.28699493	107.1060028	-0.4804913998	2.772538937e-05	-7.463225984e-07	1.0
89	0	-87.28699493	107.1060028	-0.4796732068	2.746955397e-05	-1.281840468e-06	1.0
90	0	-87.28699493	107.1060028	-0.4792765677	2.650313399e-05	-1.833620786e-06	1.0
91	0	-87.28699493	107.1060028	-0.4854879379	8.085260561e-06	-2.68511576e-06	1.0
[RightUpLeg]
88	-82.07800293	-67.51699829	-15.99599934	-1.687278986	-4.578087807	10.90843201	1.0
89	-82.07800293	-67.51699829	-15.99599934	-1.71957314	-4.57435751	10.91234589	1.0
90	-82.07800293	-67.51699829	-15.99599934	-1.7516222	-4.57071352	10.91615391	1.0
91	-82.07800293	-67.51699829	-15.99599934	-1.783591986	-4.568688393	10.91600132	1.0
[RightLeg]
88	0	-443.7049866	2.861999989	11.1374464	-5.284842968	2.294202566	1.0
89	0	-443.7049866	2.861999989	11.15956783	-5.285729885	2.290987968	1.0
90	0	-443.7049866	2.861999989	11.18144989	-5.285783768	2.288214684	1.0
91	0	-443.7049866	2.861999989	11.19944477	-5.268398285	2.294346571	1.0
[RightFoot]
88	0	-444.2770081	-29.83799934	-9.75148201	-0.3434937298	-7.990703106	1.0
89	0	-444.2770081	-29.83799934	-9.756052971	-0.3445443809	-7.995925426	1.0
90	0	-444.2770081	-29.83799934	-9.760454178	-0.3455896974	-8.001214027	1.0
91	0	-444.2770081	-29.83799934	-9.76017189	-0.3460974693	-8.005487442	1.0
[RightToeBase]
88	0	-87.28699493	107.1060028	-0.5429669619	-1.820679358e-06	-6.569537163e-07	1.0
89	0	-87.28699493	107.1060028	-0.5377256274	-2.789438895e-06	-5.893560342e-07	1.0
90	0	-87.28699493	107.1060028	-0.5331135392	-3.909069619e-06	-5.021968832e-07	1.0
91	0	-87.28699493	107.1060028	-0.5418640375	-1.068315214e-05	8.851242796e-07	1.0
[EndOfFile]
